# xmcd
#
# Track frame offsets:
#	150
#	13974
#	30393
#	57945
#	85821
#	106902
#	122502
#	146275
#	157391
#	174812
#	203582
#
# Disc length: 2958 seconds
#
# Revision: 1
# Processed by: cddbd v1.5.2PL0 Copyright (c) Steve Scherf et al.
# Submitted via: audiograbber 1.83.01
#
DISCID=850b8c0b
DTITLE=Ricky Skaggs and Bruce Hornsby - Ricky Skaggs and Bruce Hornsby
DYEAR=2013
DGENRE=Bluegrass
TTITLE0=The Dreaded Spoon
TTITLE1=Gulf Of Mexico Fishing Boat Blues
TTITLE2=Across The Rocky Mountains
TTITLE3=Mandolin Rain
TTITLE4=Stubb
TTITLE5=Come On Out
TTITLE6=A Night On The Town
TTITLE7=Sheep Shell Corn
TTITLE8=Hills Of Mexico
TTITLE9=Crown Of Jewels
TTITLE10=Super Freak
EXTD=
EXTT0=
EXTT1=
EXTT2=
EXTT3=
EXTT4=
EXTT5=
EXTT6=
EXTT7=
EXTT8=
EXTT9=
EXTT10=
PLAYORDER=
